<svg xmlns="http://www.w3.org/2000/svg" width="1144.032" height="1145.219" viewBox="0 0 1144.032 1145.219">
  <defs>
    <style>
      .cls-1 {
        fill: none;
        opacity: 0.06;
      }

      .cls-2, .cls-3 {
        stroke: none;
      }

      .cls-3 {
        fill: #707070;
      }
    </style>
  </defs>
  <g id="Exclusion_2" data-name="Exclusion 2" class="cls-1" transform="translate(-36.069 -35.817)">
    <path class="cls-2" d="M717.442,1181.036a186.462,186.462,0,0,1-114.834-39.412,185.918,185.918,0,0,0,48.233-38.561c68.672-76.617,62.494-195.075-13.774-264.062L620.22,823.761,584.8,859.342c-73.134,73.472-73.134,193.024,0,266.5a190.49,190.49,0,0,0,17.806,15.78,186.046,186.046,0,0,1-90.137,23.3h-.016A185.253,185.253,0,0,1,387.989,1116.9L97.65,854.272a187.643,187.643,0,0,1-31.712-240.6,187.78,187.78,0,0,0,37.917,54.681,186.962,186.962,0,0,0,265.274,0l37.567-37.74L620.22,823.761l222.28-223.3,26.442,23.918a185.518,185.518,0,0,0,262.852-13.84c2.974-3.318,5.861-6.778,8.581-10.282A189.118,189.118,0,0,1,1125.16,849.5L850.082,1125.844a186.563,186.563,0,0,1-132.64,55.192ZM406.7,630.618l-.009-.009,0,0L346.723,576.37A185.517,185.517,0,0,0,83.871,590.21a188.927,188.927,0,0,0-17.933,23.467,189.158,189.158,0,0,1,37.916-211.814L378.933,125.518A187.131,187.131,0,0,1,579.462,83.047a185.514,185.514,0,0,1,248.214.8l290.339,262.631a187.613,187.613,0,0,1,22.362,253.778A191.029,191.029,0,0,0,1125.161,583a186.979,186.979,0,0,0-265.28,0l-17.38,17.46,0,0,0,0L628.976,407.315ZM579.462,83.047a189.289,189.289,0,0,0-14.638,14.636C496.152,174.3,502.331,292.758,578.6,361.745l50.378,45.569,15.232-15.3c73.14-73.473,73.14-193.023,0-266.5a186.11,186.11,0,0,0-64.745-42.47Z"/>
    <path class="cls-3" d="M 745.6595458984375 1100.38671875 C 750.1739501953125 1099.191284179688 754.617431640625 1097.704345703125 758.978271484375 1095.927978515625 C 772.6356811523438 1090.3642578125 784.9271850585938 1082.152099609375 795.5095825195312 1071.521484375 L 1070.585693359375 795.1796875 C 1089.209716796875 776.4680786132812 1100.55517578125 751.8297119140625 1102.719482421875 725.5297241210938 C 1068.751098632812 741.0814819335938 1031.5048828125 749.402099609375 993.4180297851562 749.402099609375 C 940.9951782226562 749.402099609375 890.2584228515625 733.786865234375 847.2106323242188 704.8717651367188 L 727.2686157226562 825.3655395507812 C 784.2682495117188 906.1146850585938 791.1934814453125 1013.048767089844 745.6595458984375 1100.38671875 M 466.9395446777344 1077.883056640625 C 438.8838806152344 994.4525756835938 453.2275390625 899.6878051757812 509.9613647460938 827.8543701171875 L 408.9227600097656 736.4600830078125 C 360.9651489257812 777.93115234375 300.4658203125 800.5542602539062 236.4915313720703 800.5542602539062 C 200.6463775634766 800.5542602539062 165.8898162841797 793.4514770507812 133.8231658935547 779.9124145507812 C 138.3276824951172 786.1495971679688 143.5026092529297 791.920654296875 149.3034973144531 797.16796875 L 439.6428527832031 1059.793212890625 C 447.8738708496094 1067.238525390625 457.0818786621094 1073.310546875 466.9395446777344 1077.883056640625 M 403.9103088378906 524.2708740234375 L 517.6401977539062 410.0176696777344 C 452.8284606933594 345.4559020996094 428.2225646972656 254.1380615234375 445.5475463867188 169.3349456787109 C 441.3239440917969 172.5175933837891 437.3049621582031 176.0225372314453 433.5052185058594 179.8401184082031 L 158.4247894287109 456.1860046386719 C 157.1074829101562 457.50927734375 155.8271331787109 458.8603210449219 154.5839080810547 460.2384033203125 C 176.4721527099609 454.3881225585938 199.2036895751953 451.3433837890625 222.2469635009766 451.3433837890625 C 287.4037170410156 451.3433837890625 349.9543762207031 475.4651184082031 398.3765258789062 519.2653198242188 L 403.9103088378906 524.2708740234375 M 843.0509033203125 497.1284790039062 C 886.7218627929688 467.0077819824219 938.37548828125 450.8057861328125 992.5206909179688 450.8057861328125 C 1030.9375 450.8057861328125 1068.105224609375 458.964599609375 1102.052734375 474.4621887207031 C 1099.348266601562 447.1077880859375 1086.71044921875 421.9845275878906 1066.360717773438 403.5770874023438 L 776.0223999023438 140.9470825195312 C 764.2889404296875 130.3336791992188 750.5687866210938 122.5105590820312 735.8133544921875 117.8454666137695 C 789.4592895507812 203.7752685546875 789.4006958007812 314.0920104980469 735.6372680664062 399.9676818847656 L 843.0509033203125 497.1284790039062 M 717.4417724609375 1181.035766601562 C 696.96630859375 1181.035766601562 676.781982421875 1177.72119140625 657.4497680664062 1171.18408203125 C 637.6134643554688 1164.476684570312 619.1619873046875 1154.531005859375 602.6078491210938 1141.623779296875 C 620.670654296875 1131.588623046875 636.8984985351562 1118.6181640625 650.8408813476562 1103.0625 C 719.5132446289062 1026.4453125 713.3343505859375 907.9873046875 637.0671997070312 839.0003662109375 L 620.2200317382812 823.7614135742188 L 584.8019409179688 859.342529296875 C 511.6680603027344 932.814453125 511.6680603027344 1052.3662109375 584.8019409179688 1125.843627929688 C 590.4000244140625 1131.467041015625 596.3906860351562 1136.7763671875 602.6078491210938 1141.623657226562 C 575.166748046875 1156.869262695312 543.998046875 1164.92333984375 512.470458984375 1164.926025390625 L 512.45458984375 1164.926025390625 C 466.4317626953125 1164.926025390625 422.2291564941406 1147.869262695312 387.9891357421875 1116.8974609375 L 97.65001678466797 854.2722778320312 C 80.78631591796875 839.0181884765625 67.01261901855469 821.1011962890625 56.7115364074707 801.01904296875 C 46.75979614257812 781.6177368164062 40.31718826293945 760.7518310546875 37.5626220703125 739.0016479492188 C 32.00240325927734 695.09814453125 42.0795783996582 650.59033203125 65.93783569335938 613.6766357421875 C 75.20957946777344 633.997314453125 87.96305847167969 652.3944702148438 103.854362487793 668.3579711914062 C 139.2819671630859 703.9518432617188 186.3867492675781 723.5542602539062 236.4915313720703 723.5542602539062 C 286.5960998535156 723.5542602539062 333.7008972167969 703.9518432617188 369.1287231445312 668.3579711914062 L 406.6956787109375 630.617919921875 L 620.22021484375 823.76123046875 L 842.5006713867188 600.4581909179688 L 868.9421997070312 624.3757934570312 C 903.180419921875 655.3460083007812 947.3867797851562 672.402099609375 993.4180297851562 672.402099609375 C 1046.118041992188 672.402099609375 1096.55419921875 649.8527221679688 1131.794189453125 610.5355834960938 C 1134.768310546875 607.2171020507812 1137.655395507812 603.7577514648438 1140.375 600.2540283203125 C 1168.404541015625 636.2203369140625 1182.400024414062 681.2579345703125 1179.792358398438 727.0701293945312 C 1177.162841796875 773.2659912109375 1157.760620117188 816.7455444335938 1125.160400390625 849.4990234375 L 850.0817260742188 1125.843627929688 C 832.1749877929688 1143.831665039062 811.2969970703125 1157.758544921875 788.0282592773438 1167.237670898438 C 765.5528564453125 1176.393432617188 741.8043823242188 1181.035766601562 717.4417724609375 1181.035766601562 Z M 406.6956787109375 630.617919921875 L 406.6869812011719 630.6092529296875 L 406.6908874511719 630.6051025390625 L 346.7228393554688 576.3696899414062 C 312.4845886230469 545.3994750976562 268.2782592773438 528.3433837890625 222.2469635009766 528.3433837890625 C 169.5469665527344 528.3433837890625 119.1106643676758 550.8929443359375 83.87110137939453 590.2098999023438 C 77.28958129882812 597.5529174804688 71.256103515625 605.4481811523438 65.93783569335938 613.6766357421875 C 58.07522964477539 596.4447021484375 52.86957931518555 578.1468505859375 50.45479583740234 559.29052734375 C 48.06218719482422 540.6064453125 48.45175170898438 521.7227172851562 51.61305618286133 503.163818359375 C 58.17653656005859 464.630126953125 76.24131774902344 429.6007690429688 103.854362487793 401.8623046875 L 378.9332885742188 125.5179443359375 C 396.8369750976562 107.5296859741211 417.7141418457031 93.60208129882812 440.9845886230469 84.12229919433594 C 463.46044921875 74.96642303466797 487.2098083496094 70.32381439208984 511.5726318359375 70.32381439208984 C 534.9326171875 70.32381439208984 557.77392578125 74.60469055175781 579.462158203125 83.04729461669922 C 613.4828491210938 52.58664321899414 657.4280395507812 35.81686019897461 703.20068359375 35.81686019897461 C 749.2315063476562 35.81686019897461 793.4378662109375 52.87273025512695 827.6759033203125 83.84251403808594 L 1118.014770507812 346.4731750488281 C 1153.229614257812 378.3268737792969 1174.855712890625 421.9775085449219 1178.909301757812 469.384033203125 C 1182.943237304688 516.5623168945312 1169.258666992188 563.03857421875 1140.376708984375 600.2516479492188 C 1135.697631835938 594.2490234375 1130.581298828125 588.4440307617188 1125.160400390625 582.9979248046875 C 1089.73046875 547.4068603515625 1042.624633789062 527.8057861328125 992.5206909179688 527.8057861328125 C 942.4165649414062 527.8057861328125 895.3109130859375 547.4068603515625 859.8806762695312 582.9979248046875 L 842.496337890625 600.4622802734375 L 842.4913330078125 600.4588012695312 L 628.9758911132812 407.3149108886719 L 406.6956787109375 630.617919921875 Z M 579.462158203125 83.04729461669922 C 574.37109375 87.60577392578125 569.4454345703125 92.52642822265625 564.8241577148438 97.68316650390625 C 496.1517639160156 174.3003387451172 502.3306579589844 292.7579345703125 578.5975952148438 361.7451171875 L 628.9758911132812 407.314697265625 L 644.2073974609375 392.0133972167969 C 717.3478393554688 318.5403442382812 717.3478393554688 198.9907684326172 644.2073974609375 125.5177307128906 C 625.5906372070312 106.8135986328125 603.8071899414062 92.52446746826172 579.4619750976562 83.04729461669922 C 579.462158203125 83.04729461669922 579.462158203125 83.04729461669922 579.462158203125 83.04729461669922 L 579.4619750976562 83.04729461669922 Z"/>
  </g>
</svg>
