<svg xmlns="http://www.w3.org/2000/svg" width="68.032" height="68.219" viewBox="0 0 68.032 68.219">
  <defs>
    <style>
      .cls-1 {
        fill: none;
      }

      .cls-2, .cls-3 {
        stroke: none;
      }

      .cls-3 {
        fill: #b9e901;
      }
    </style>
  </defs>
  <g id="Exclusion_1" data-name="Exclusion 1" class="cls-1" transform="translate(-36.069 -35.817)">
    <path class="cls-2" d="M76.588,104.036a11.076,11.076,0,0,1-6.829-2.348,11.059,11.059,0,0,0,2.868-2.3,11.2,11.2,0,0,0-.819-15.73l-1-.908L68.7,84.873a11.265,11.265,0,0,0,1.059,16.815,11.049,11.049,0,0,1-5.36,1.388h0a11.006,11.006,0,0,1-7.4-2.861L39.731,84.571a11.191,11.191,0,0,1-1.886-14.332A11.186,11.186,0,0,0,40.1,73.5a11.1,11.1,0,0,0,15.775,0l2.234-2.248,12.7,11.505,13.218-13.3L85.6,70.876a11.019,11.019,0,0,0,15.631-.824c.177-.2.349-.4.51-.612a11.28,11.28,0,0,1-.9,14.847L84.476,100.748a11.085,11.085,0,0,1-7.888,3.288ZM58.109,71.248h0l-3.566-3.231a11.019,11.019,0,0,0-15.631.824,11.253,11.253,0,0,0-1.066,1.4A11.282,11.282,0,0,1,40.1,57.622L56.458,41.16a11.113,11.113,0,0,1,11.925-2.53,11.018,11.018,0,0,1,14.76.047l17.265,15.644a11.189,11.189,0,0,1,1.33,15.117,11.37,11.37,0,0,0-.9-1.028,11.106,11.106,0,0,0-15.775,0l-1.034,1.04h0l-12.7-11.505ZM68.383,38.63a11.181,11.181,0,0,0-.051,16.6l3,2.714.906-.911a11.288,11.288,0,0,0,0-15.875,11.066,11.066,0,0,0-3.85-2.53Z"/>
    <path class="cls-3" d="M 77.14863586425781 100.0138244628906 C 77.88014221191406 99.95690155029297 78.59297180175781 99.78815460205078 79.27440643310547 99.51009368896484 C 80.15859222412109 99.14927673339844 80.95401763916016 98.6170654296875 81.63846588134766 97.92832946777344 L 97.99635314941406 81.46710205078125 C 99.24500274658203 80.21044158935547 99.98820495605469 78.54111480712891 100.0890426635742 76.76666259765625 C 100.1044692993164 76.49508666992188 100.1048278808594 76.22438812255859 100.0904541015625 75.95554351806641 C 97.92949676513672 77.11197662353516 95.49601745605469 77.73710632324219 92.99954223632812 77.73710632324219 C 89.83780670166016 77.73710632324219 86.78330993652344 76.743896484375 84.23739624023438 74.91251373291016 L 76.409423828125 82.78993225097656 C 80.18321990966797 87.78699493408203 80.49045562744141 94.69430541992188 77.14863586425781 100.0138244628906 M 62.68295288085938 98.8624267578125 C 60.44589996337891 93.65294647216797 61.23532485961914 87.43153381347656 65.0516357421875 82.93647003173828 L 58.24384689331055 76.76796722412109 C 55.44009017944336 79.36271667480469 51.82300567626953 80.78414916992188 47.98761367797852 80.78414916992188 C 45.32820510864258 80.78414916992188 42.77366256713867 80.10073089599609 40.52262496948242 78.81673431396484 C 40.61911392211914 79.07544708251953 40.73068618774414 79.32864379882812 40.85707855224609 79.57546234130859 C 41.24862670898438 80.34012603759766 41.77346420288086 81.02351379394531 42.4170036315918 81.60662841796875 L 59.68247604370117 97.25075531005859 C 60.54657745361328 98.03369140625 61.57690048217773 98.58262634277344 62.68295288085938 98.8624267578125 M 57.96431732177734 65.71903228759766 L 65.53802490234375 58.09746551513672 C 61.15140533447266 54.04594039916992 59.6994743347168 47.9423942565918 61.32551956176758 42.54417037963867 C 60.57419967651367 42.89690780639648 59.89263534545898 43.37865447998047 59.29546356201172 43.97966384887695 L 42.93735122680664 60.44110107421875 C 42.41709518432617 60.96461868286133 41.98538589477539 61.55573654174805 41.65107345581055 62.19726181030273 C 43.38335037231445 61.51655197143555 45.24355316162109 61.15577697753906 47.14054107666016 61.15577697753906 C 50.87265396118164 61.15577697753906 54.45530319213867 62.53964233398438 57.22829055786133 65.05223083496094 L 57.96431732177734 65.71903228759766 M 84.01451873779297 64.04470062255859 C 86.59185791015625 62.14783477783203 89.69022369384766 61.12375259399414 92.9461669921875 61.12375259399414 C 95.47018432617188 61.12375259399414 97.89981842041016 61.73936080932617 100.0652008056641 62.89976119995117 C 100.0774765014648 62.59633255004883 100.0707473754883 62.29059219360352 100.044563293457 61.98386383056641 C 99.88980102539062 60.17080307006836 99.06533813476562 58.50249099731445 97.72303771972656 57.28622817993164 L 80.45758056640625 41.64180374145508 C 79.31911468505859 40.61025238037109 77.89157867431641 39.98492050170898 76.38295745849609 39.84622573852539 C 80.34263610839844 45.04055023193359 80.51924133300781 52.23654174804688 76.91237640380859 57.60919952392578 L 84.01451873779297 64.04470062255859 M 76.58814239501953 104.035530090332 C 75.37052917480469 104.035530090332 74.17024230957031 103.8380813598633 73.02061462402344 103.4486923217773 C 71.84100341796875 103.0491409301758 70.74376678466797 102.4566879272461 69.75933074951172 101.6878433227539 C 70.83348846435547 101.0900497436523 71.79849243164062 100.3174133300781 72.62760162353516 99.39081573486328 C 76.71131134033203 94.82684326171875 76.34388732910156 87.77050018310547 71.80852508544922 83.66107940673828 L 70.80666351318359 82.75331878662109 L 68.70049285888672 84.87281799316406 C 64.35145568847656 89.24941253662109 64.35145568847656 96.37090301513672 68.70049285888672 100.7478408813477 C 69.03337860107422 101.0828018188477 69.38961791992188 101.3990783691406 69.75933074951172 101.6878128051758 C 68.12751770019531 102.5959625244141 66.27401733398438 103.0757522583008 64.39916229248047 103.0759048461914 L 64.39821624755859 103.0759048461914 C 61.66140365600586 103.0759048461914 59.03281402587891 102.0598678588867 56.99666595458984 100.2149429321289 L 39.73117828369141 84.57080078125 C 38.72834014892578 83.66212463378906 37.90926361083984 82.59485626220703 37.29670333862305 81.39857482910156 C 36.70490264892578 80.24288940429688 36.3217887878418 78.99995422363281 36.15797805786133 77.70433044433594 C 35.82732772827148 75.08908081054688 36.42658996582031 72.43781280517578 37.84535217285156 70.23892974853516 C 38.39671325683594 71.44939422607422 39.15512847900391 72.54528045654297 40.10011672973633 73.49620056152344 C 42.20689010620117 75.61646270751953 45.00805282592773 76.78414916992188 47.98761367797852 76.78414916992188 C 50.96717834472656 76.78414916992188 53.76834106445312 75.61646270751953 55.87510299682617 73.49620056152344 L 58.10910415649414 71.24809265136719 L 70.80668640136719 82.75330352783203 L 84.02497863769531 69.45153045654297 L 85.59736633300781 70.87625122070312 C 87.63339996337891 72.72109985351562 90.26219940185547 73.73710632324219 92.99954223632812 73.73710632324219 C 96.13343048095703 73.73710632324219 99.13270568847656 72.39386749267578 101.2283020019531 70.05182647705078 C 101.4051666259766 69.85414123535156 101.5768432617188 69.64807891845703 101.7385635375977 69.43936920166016 C 103.405403137207 71.58181762695312 104.237663269043 74.26461791992188 104.0826034545898 76.99357604980469 C 103.9262161254883 79.74539947509766 102.7724533081055 82.33538818359375 100.8338165283203 84.28646850585938 L 84.47579193115234 100.7478408813477 C 83.41094207763672 101.8193435668945 82.16940307617188 102.6489562988281 80.78569030761719 103.2136001586914 C 79.44915008544922 103.7589874267578 78.03688812255859 104.035530090332 76.58814239501953 104.035530090332 Z M 58.10910415649414 71.24809265136719 L 58.10856628417969 71.24758148193359 L 58.10881423950195 71.24732971191406 L 54.54270172119141 68.01661682128906 C 52.50666427612305 66.17177581787109 49.87787628173828 65.15577697753906 47.14054107666016 65.15577697753906 C 44.00664138793945 65.15577697753906 41.00737762451172 66.49901580810547 38.91177749633789 68.84104919433594 C 38.52041625976562 69.27846527099609 38.16161346435547 69.74876403808594 37.84536361694336 70.23892974853516 C 37.37778854370117 69.21245574951172 37.0682258605957 68.12247467041016 36.92464065551758 66.99923706054688 C 36.78235244750977 65.88626861572266 36.80551528930664 64.76140594482422 36.99351501464844 63.65587615966797 C 37.38381576538086 61.36048889160156 38.45806503295898 59.27384185791016 40.10011672973633 57.62151718139648 L 56.45815277099609 41.16015243530273 C 57.5228385925293 40.08861541748047 58.76432800292969 39.25899124145508 60.14813995361328 38.69427871704102 C 61.48470306396484 38.14889144897461 62.89699172973633 37.87234115600586 64.34577941894531 37.87234115600586 C 65.73491668701172 37.87234115600586 67.09321594238281 38.12734222412109 68.38294982910156 38.63025283813477 C 70.40605163574219 36.81576538085938 73.01932525634766 35.81681442260742 75.74124908447266 35.81681442260742 C 78.47856140136719 35.81681442260742 81.10736846923828 36.83280181884766 83.14338684082031 38.67761611938477 L 100.4088897705078 54.32207870483398 C 102.5030059814453 56.21955108642578 103.7890243530273 58.81974029541016 104.0300750732422 61.6436653137207 C 104.2699813842773 64.45398712158203 103.4561996459961 67.22250366210938 101.7386932373047 69.43921661376953 C 101.4604263305664 69.08164978027344 101.1561813354492 68.73586273193359 100.8338165283203 68.41146850585938 C 98.72690582275391 66.29135131835938 95.92567443847656 65.12375640869141 92.9461669921875 65.12375640869141 C 89.96663665771484 65.12375640869141 87.16541290283203 66.29135131835938 85.05848693847656 68.41146850585938 L 84.02471160888672 69.45177459716797 L 84.02442932128906 69.45156860351562 L 71.32736206054688 57.94631576538086 L 58.10910415649414 71.24809265136719 Z M 68.38294982910156 38.63025283813477 C 68.08019256591797 38.90179061889648 67.78729248046875 39.19490432739258 67.51246643066406 39.50207901000977 C 63.42875289916992 44.0660285949707 63.79618835449219 51.12236404418945 68.33154296875 55.23180389404297 L 71.32736206054688 57.94630432128906 L 72.23313140869141 57.03483963012695 C 76.58255004882812 52.65816497802734 76.58255004882812 45.53681564331055 72.23313140869141 41.16014099121094 C 71.12605285644531 40.04596710205078 69.83065032958984 39.19478988647461 68.38294219970703 38.63025283813477 C 68.38294982910156 38.63025283813477 68.38294982910156 38.63025283813477 68.38294982910156 38.63025283813477 L 68.38294219970703 38.63025283813477 Z"/>
  </g>
</svg>
